<?xml version="1.0" encoding="UTF-8" standalone="no"?>
<!-- Created with Inkscape (http://www.inkscape.org/) -->

<svg
   width="210.4709mm"
   height="210mm"
   viewBox="0 0 210.4709 210"
   version="1.1"
   id="svg5"
   inkscape:version="1.1 (1:1.1+202105261517+ce6663b3b7)"
   sodipodi:docname="an_store_2.svg"
   inkscape:export-filename="/home/timo/Desktop/an_store_2.png"
   inkscape:export-xdpi="118.57"
   inkscape:export-ydpi="118.57"
   xmlns:inkscape="http://www.inkscape.org/namespaces/inkscape"
   xmlns:sodipodi="http://sodipodi.sourceforge.net/DTD/sodipodi-0.dtd"
   xmlns:xlink="http://www.w3.org/1999/xlink"
   xmlns="http://www.w3.org/2000/svg"
   xmlns:svg="http://www.w3.org/2000/svg">
  <sodipodi:namedview
     id="namedview7"
     pagecolor="#ffffff"
     bordercolor="#666666"
     borderopacity="1.0"
     inkscape:pageshadow="2"
     inkscape:pageopacity="0.0"
     inkscape:pagecheckerboard="0"
     inkscape:document-units="mm"
     showgrid="false"
     inkscape:zoom="0.70710678"
     inkscape:cx="-269.40768"
     inkscape:cy="436.28488"
     inkscape:window-width="2560"
     inkscape:window-height="1334"
     inkscape:window-x="0"
     inkscape:window-y="27"
     inkscape:window-maximized="1"
     inkscape:current-layer="layer1"
     fit-margin-top="0"
     fit-margin-left="0"
     fit-margin-right="0"
     fit-margin-bottom="0">
    <inkscape:grid
       type="xygrid"
       id="grid351"
       originx="0.21073965"
       originy="-23.49464" />
  </sodipodi:namedview>
  <defs
     id="defs2">
    <linearGradient
       inkscape:collect="always"
       id="linearGradient109468">
      <stop
         style="stop-color:#cbedff;stop-opacity:1;"
         offset="0"
         id="stop109464" />
      <stop
         style="stop-color:#cbedff;stop-opacity:0;"
         offset="1"
         id="stop109466" />
    </linearGradient>
    <rect
       x="320"
       y="170"
       width="417.11212"
       height="110.22557"
       id="rect6033" />
    <linearGradient
       inkscape:collect="always"
       xlink:href="#linearGradient109468"
       id="linearGradient109470"
       x1="110.94433"
       y1="108.21016"
       x2="109.7485"
       y2="25.369928"
       gradientUnits="userSpaceOnUse"
       gradientTransform="translate(0,-182.04325)" />
  </defs>
  <g
     inkscape:label="Layer 1"
     inkscape:groupmode="layer"
     id="layer1"
     transform="translate(0.21073966,-23.494639)">
    <rect
       style="fill:#ffffff;stroke:#ffffff;stroke-width:1.22014"
       id="rect121561"
       width="209.22667"
       height="208.17398"
       x="0.17088246"
       y="23.876268" />
    <rect
       style="opacity:1;fill:url(#linearGradient109470);fill-opacity:1;stroke:#e6e6e6;stroke-width:0.763246;stroke-linejoin:bevel;stroke-miterlimit:4;stroke-dasharray:none;stroke-opacity:0.3"
       id="rect106414"
       width="209.70766"
       height="134.29073"
       x="0.17088315"
       y="-158.16699"
       transform="scale(1,-1)" />
    <rect
       style="opacity:1;fill:#e6e6e6;fill-opacity:1;stroke:#e6e6e6;stroke-width:0.702067;stroke-linejoin:bevel;stroke-miterlimit:4;stroke-dasharray:none;stroke-opacity:0.3"
       id="rect106274"
       width="209.75003"
       height="36.119282"
       x="0.1482245"
       y="155.30269" />
    <rect
       style="fill:#808080;fill-opacity:1;stroke:#808080;stroke-width:0.702067;stroke-linejoin:bevel;stroke-miterlimit:4;stroke-dasharray:none;stroke-opacity:0.3"
       id="rect106274-1"
       width="209.75003"
       height="36.119282"
       x="-0.3524704"
       y="195.93097" />
    <rect
       style="fill:#483737;stroke:#483737;stroke-width:0.369672;stroke-linejoin:bevel"
       id="rect31"
       width="208.15442"
       height="4.3238773"
       x="1.243145"
       y="191.60709" />
    <rect
       style="fill:#f3700f;fill-opacity:1;stroke:#f3700f;stroke-width:0.226397;stroke-linejoin:bevel;stroke-opacity:1"
       id="rect165"
       width="105.49107"
       height="59.539383"
       x="53.059063"
       y="131.92159" />
    <rect
       style="fill:#483e37;fill-opacity:1;stroke:#483e37;stroke-width:0.260454;stroke-linejoin:miter;stroke-miterlimit:4;stroke-dasharray:none"
       id="rect483"
       width="105.17993"
       height="2.9528251"
       x="53.253696"
       y="120.72198" />
    <rect
       style="fill:#f3700f;fill-opacity:1;stroke:#f3700f;stroke-width:0.0851138;stroke-linejoin:bevel;stroke-opacity:1"
       id="rect165-1"
       width="105.64028"
       height="8.403327"
       x="52.984459"
       y="123.37268" />
    <ellipse
       style="fill:#f3700f;fill-opacity:1;stroke:#f3700f;stroke-width:0.200884;stroke-linejoin:bevel;stroke-opacity:1"
       id="path269"
       cx="105.8046"
       cy="118.61096"
       rx="33.115173"
       ry="8.5409193" />
    <rect
       style="fill:#f3700f;fill-opacity:1;stroke:#f3700f;stroke-width:0.215178;stroke-linejoin:bevel;stroke-opacity:1"
       id="rect375"
       width="66.264496"
       height="10.282258"
       x="72.684799"
       y="118.40582" />
    <rect
       style="fill:#afc6e9;fill-opacity:1;stroke:#ffffff;stroke-width:1.5;stroke-linejoin:miter;stroke-miterlimit:4;stroke-dasharray:none"
       id="rect1643-5"
       width="58.610603"
       height="34.935867"
       x="91.925865"
       y="146.55502" />
    <rect
       style="fill:#ffffff;fill-opacity:1;stroke:#ffffff;stroke-width:0.70635;stroke-linejoin:miter;stroke-miterlimit:4;stroke-dasharray:none"
       id="rect1597"
       width="26.243553"
       height="43.919376"
       x="57.809246"
       y="146.13113" />
    <rect
       style="fill:#afc6e9;fill-opacity:1;stroke:#afc6e9;stroke-width:0.70635;stroke-linejoin:miter;stroke-miterlimit:4;stroke-dasharray:none;stroke-opacity:1"
       id="rect1643"
       width="22.744413"
       height="19.963352"
       x="59.558815"
       y="148.12747" />
    <rect
       style="fill:#afc6e9;fill-opacity:1;stroke:#afc6e9;stroke-width:0.455245;stroke-linejoin:miter;stroke-miterlimit:4;stroke-dasharray:none;stroke-opacity:1"
       id="rect1643-3"
       width="10.497421"
       height="17.96702"
       x="59.558815"
       y="170.08714" />
    <rect
       style="fill:#afc6e9;fill-opacity:1;stroke:#afc6e9;stroke-width:0.455245;stroke-linejoin:miter;stroke-miterlimit:4;stroke-dasharray:none;stroke-opacity:1"
       id="rect1643-3-6"
       width="10.497423"
       height="17.96702"
       x="71.805809"
       y="170.08714" />
    <rect
       style="fill:#fbffff;fill-opacity:1;stroke:#000000;stroke-width:0.596974;stroke-linejoin:round;stroke-miterlimit:4;stroke-dasharray:none;stroke-opacity:1"
       id="rect3725"
       width="54.236679"
       height="9.9816751"
       x="78.804085"
       y="117.00927"
       ry="2.1389303" />
    <text
       xml:space="preserve"
       transform="matrix(0.17495702,0,0,0.19963353,32.56429,85.538935)"
       id="text6031"
       style="font-size:26.6667px;line-height:1.25;font-family:sans-serif;letter-spacing:0px;word-spacing:0px;white-space:pre;shape-inside:url(#rect6033)"><tspan
         x="320"
         y="193.59378"
         id="tspan122087"><tspan
           style="font-weight:800;font-stretch:extra-condensed;font-family:'Noto Serif Bengali';-inkscape-font-specification:'Noto Serif Bengali Ultra-Bold Extra-Condensed'"
           id="tspan122085">ANIMAL STORE</tspan></tspan></text>
    <rect
       style="opacity:0.55;fill:#999999;fill-opacity:1;stroke:#999999;stroke-width:0.711098;stroke-linejoin:miter;stroke-miterlimit:4;stroke-dasharray:none;stroke-opacity:1"
       id="rect61117-7-9"
       width="102.40646"
       height="5.4047132"
       x="27.623302"
       y="143.60126"
       ry="0"
       transform="matrix(1,0,0.19124669,0.981542,0,0)" />
    <rect
       style="fill:#ef2831;fill-opacity:1;stroke:#ef2831;stroke-width:0.75085;stroke-linejoin:round;stroke-miterlimit:4;stroke-dasharray:none;stroke-opacity:1"
       id="rect56900"
       width="5.5035286"
       height="10.093773"
       x="53.889435"
       y="133.55327"
       ry="1.7392515" />
    <rect
       style="fill:#ffffff;fill-opacity:1;stroke:#ffffff;stroke-width:0.75085;stroke-linejoin:round;stroke-miterlimit:4;stroke-dasharray:none;stroke-opacity:1"
       id="rect56900-6"
       width="5.5035286"
       height="10.093773"
       x="60.085243"
       y="133.55327"
       ry="1.7392515" />
    <rect
       style="fill:#ff6600;fill-opacity:1;stroke:#ff6600;stroke-width:0.75085;stroke-linejoin:round;stroke-miterlimit:4;stroke-dasharray:none;stroke-opacity:1"
       id="rect56900-6-8"
       width="5.5035286"
       height="10.093773"
       x="66.279709"
       y="133.55327"
       ry="1.7392515" />
    <rect
       style="fill:#ef2831;fill-opacity:1;stroke:#ef2831;stroke-width:0.75085;stroke-linejoin:round;stroke-miterlimit:4;stroke-dasharray:none;stroke-opacity:1"
       id="rect56900-2"
       width="5.5035286"
       height="10.093773"
       x="72.483063"
       y="133.55327"
       ry="1.7392515" />
    <rect
       style="fill:#ffffff;fill-opacity:1;stroke:#ffffff;stroke-width:0.75085;stroke-linejoin:round;stroke-miterlimit:4;stroke-dasharray:none;stroke-opacity:1"
       id="rect56900-6-6"
       width="5.5035286"
       height="10.093773"
       x="78.678879"
       y="133.55327"
       ry="1.7392515" />
    <rect
       style="fill:#ff6600;fill-opacity:1;stroke:#ff6600;stroke-width:0.75085;stroke-linejoin:round;stroke-miterlimit:4;stroke-dasharray:none;stroke-opacity:1"
       id="rect56900-6-8-6"
       width="5.5035286"
       height="10.093773"
       x="84.873337"
       y="133.55327"
       ry="1.7392515" />
    <rect
       style="fill:#000080;fill-opacity:1;stroke:#000080;stroke-width:0.75085;stroke-linejoin:round;stroke-miterlimit:4;stroke-dasharray:none;stroke-opacity:1"
       id="rect56900-0"
       width="5.5035286"
       height="10.093773"
       x="90.876122"
       y="133.55327"
       ry="1.7392515" />
    <rect
       style="fill:#ffffff;fill-opacity:1;stroke:#ffffff;stroke-width:0.75085;stroke-linejoin:round;stroke-miterlimit:4;stroke-dasharray:none;stroke-opacity:1"
       id="rect56900-6-4"
       width="5.5035286"
       height="10.093773"
       x="97.071938"
       y="133.55327"
       ry="1.7392515" />
    <rect
       style="fill:#008000;fill-opacity:1;stroke:#008000;stroke-width:0.75085;stroke-linejoin:round;stroke-miterlimit:4;stroke-dasharray:none;stroke-opacity:1"
       id="rect56900-6-8-8"
       width="5.5035286"
       height="10.093773"
       x="103.2664"
       y="133.55327"
       ry="1.7392515" />
    <rect
       style="fill:#ef2831;fill-opacity:1;stroke:#ef2831;stroke-width:0.75085;stroke-linejoin:round;stroke-miterlimit:4;stroke-dasharray:none;stroke-opacity:1"
       id="rect56900-2-7"
       width="5.5035286"
       height="10.093773"
       x="109.46976"
       y="133.55327"
       ry="1.7392515" />
    <rect
       style="fill:#ffffff;fill-opacity:1;stroke:#ffffff;stroke-width:0.75085;stroke-linejoin:round;stroke-miterlimit:4;stroke-dasharray:none;stroke-opacity:1"
       id="rect56900-6-6-1"
       width="5.5035286"
       height="10.093773"
       x="115.66557"
       y="133.55327"
       ry="1.7392515" />
    <rect
       style="fill:#ef2831;fill-opacity:1;stroke:#ef2831;stroke-width:0.75085;stroke-linejoin:round;stroke-miterlimit:4;stroke-dasharray:none;stroke-opacity:1"
       id="rect56900-6-8-6-7"
       width="5.5035286"
       height="10.093773"
       x="121.86004"
       y="133.55327"
       ry="1.7392515" />
    <rect
       style="fill:#008000;fill-opacity:1;stroke:#008000;stroke-width:0.75085;stroke-linejoin:round;stroke-miterlimit:4;stroke-dasharray:none;stroke-opacity:1"
       id="rect56900-0-2"
       width="5.5035286"
       height="10.093773"
       x="127.83897"
       y="133.55327"
       ry="1.7392515" />
    <rect
       style="fill:#ffffff;fill-opacity:1;stroke:#ffffff;stroke-width:0.75085;stroke-linejoin:round;stroke-miterlimit:4;stroke-dasharray:none;stroke-opacity:1"
       id="rect56900-6-4-2"
       width="5.5035286"
       height="10.093773"
       x="134.03477"
       y="133.55327"
       ry="1.7392515" />
    <rect
       style="fill:#000080;fill-opacity:1;stroke:#000080;stroke-width:0.75085;stroke-linejoin:round;stroke-miterlimit:4;stroke-dasharray:none;stroke-opacity:1"
       id="rect56900-6-8-8-6"
       width="5.5035286"
       height="10.093773"
       x="140.22925"
       y="133.55327"
       ry="1.7392515" />
    <rect
       style="fill:#ef2831;fill-opacity:1;stroke:#ef2831;stroke-width:0.75085;stroke-linejoin:round;stroke-miterlimit:4;stroke-dasharray:none;stroke-opacity:1"
       id="rect56900-2-7-1"
       width="5.5035286"
       height="10.093773"
       x="146.4326"
       y="133.55327"
       ry="1.7392515" />
    <rect
       style="fill:#ffffff;fill-opacity:1;stroke:#ffffff;stroke-width:0.75085;stroke-linejoin:round;stroke-miterlimit:4;stroke-dasharray:none;stroke-opacity:1"
       id="rect56900-6-6-1-0"
       width="5.5035286"
       height="10.093773"
       x="152.62842"
       y="133.55327"
       ry="1.7392515" />
    <rect
       style="fill:#483e37;fill-opacity:1;stroke:#483e37;stroke-width:0.285959;stroke-linejoin:miter;stroke-miterlimit:4;stroke-dasharray:none"
       id="rect483-3"
       width="110.52833"
       height="3.3872292"
       x="50.932487"
       y="131.71617" />
    <rect
       style="opacity:0.55;fill:#d5f6ff;fill-opacity:1;stroke:#d5f6ff;stroke-width:0.868818;stroke-linejoin:miter;stroke-miterlimit:4;stroke-dasharray:none;stroke-opacity:1"
       id="rect68571-9-9"
       width="2.173372"
       height="44.358948"
       x="277.3656"
       y="192.41653"
       transform="matrix(0.99972926,0.02326816,-0.6792328,0.73392289,0,0)" />
    <rect
       style="opacity:0.55;fill:#999999;fill-opacity:1;stroke:#999999;stroke-width:0.245522;stroke-linejoin:miter;stroke-miterlimit:4;stroke-dasharray:none;stroke-opacity:1"
       id="rect61117-7"
       width="56.96553"
       height="1.158291"
       x="92.743736"
       y="147.4911"
       ry="0" />
    <rect
       style="opacity:0.55;fill:#d5f6ff;fill-opacity:1;stroke:#d5f6ff;stroke-width:0.538217;stroke-linejoin:miter;stroke-miterlimit:4;stroke-dasharray:none;stroke-opacity:1"
       id="rect68571-9-9-1"
       width="1.3463649"
       height="27.47957"
       x="211.90091"
       y="194.86679"
       transform="matrix(0.99972926,0.02326816,-0.6792328,0.73392289,0,0)" />
    <rect
       style="opacity:0.55;fill:#999999;fill-opacity:1;stroke:#999999;stroke-width:0.130284;stroke-linejoin:miter;stroke-miterlimit:4;stroke-dasharray:none;stroke-opacity:1"
       id="rect61117-7-6"
       width="23.316294"
       height="0.79684401"
       x="59.311161"
       y="147.8784"
       ry="0" />
    <rect
       style="opacity:0.55;fill:#999999;fill-opacity:1;stroke:#999999;stroke-width:0.113383;stroke-linejoin:miter;stroke-miterlimit:4;stroke-dasharray:none;stroke-opacity:1"
       id="rect61117-7-6-6"
       width="19.224976"
       height="0.73196125"
       x="148.81331"
       y="-60.041508"
       ry="0"
       transform="rotate(90)" />
    <rect
       style="opacity:0.55;fill:#999999;fill-opacity:1;stroke:#999999;stroke-width:0.178112;stroke-linejoin:miter;stroke-miterlimit:4;stroke-dasharray:none;stroke-opacity:1"
       id="rect61117-7-6-6-3"
       width="31.731094"
       height="1.0943458"
       x="148.85564"
       y="-93.8209"
       ry="0"
       transform="rotate(90)" />
    <rect
       style="opacity:0.55;fill:#999999;fill-opacity:1;stroke:#999999;stroke-width:0.0963419;stroke-linejoin:miter;stroke-miterlimit:4;stroke-dasharray:none;stroke-opacity:1"
       id="rect61117-7-6-6-5"
       width="17.587954"
       height="0.57765836"
       x="170.7122"
       y="-59.978935"
       ry="0"
       transform="rotate(90)" />
    <rect
       style="opacity:0.55;fill:#999999;fill-opacity:1;stroke:#999999;stroke-width:0.0823286;stroke-linejoin:miter;stroke-miterlimit:4;stroke-dasharray:none;stroke-opacity:1"
       id="rect61117-7-6-7"
       width="10.852346"
       height="0.68363464"
       x="59.384655"
       y="169.93239"
       ry="0" />
    <rect
       style="opacity:0.55;fill:#d5f6ff;fill-opacity:1;stroke:#d5f6ff;stroke-width:0.338587;stroke-linejoin:miter;stroke-miterlimit:4;stroke-dasharray:none;stroke-opacity:1"
       id="rect68571-9-9-1-7-7"
       width="0.85112119"
       height="17.203184"
       x="231.16525"
       y="221.16617"
       transform="matrix(0.99999902,-0.00140128,-0.67236317,0.74022143,0,0)" />
    <rect
       style="opacity:0.55;fill:#d5f6ff;fill-opacity:1;stroke:#d5f6ff;stroke-width:0.338587;stroke-linejoin:miter;stroke-miterlimit:4;stroke-dasharray:none;stroke-opacity:1"
       id="rect68571-9-9-1-7"
       width="0.85112119"
       height="17.203184"
       x="231.16525"
       y="238.36935"
       transform="matrix(0.99999902,-0.00140128,-0.67236317,0.74022143,0,0)" />
    <rect
       style="fill:#ffffff;fill-opacity:1;stroke:#ffffff;stroke-width:0.955028;stroke-linejoin:miter;stroke-miterlimit:4;stroke-dasharray:none;stroke-opacity:1"
       id="rect69767"
       width="25.909645"
       height="0.78138518"
       x="57.934628"
       y="168.58675" />
    <rect
       style="fill:#ffffff;fill-opacity:1;stroke:#ffffff;stroke-width:1.08246;stroke-linejoin:miter;stroke-miterlimit:4;stroke-dasharray:none;stroke-opacity:1"
       id="rect69767-5"
       width="25.90255"
       height="1.004099"
       x="57.984268"
       y="188.91646" />
    <rect
       style="fill:#ffffff;fill-opacity:1;stroke:#ffffff;stroke-width:0.82323;stroke-linejoin:miter;stroke-miterlimit:4;stroke-dasharray:none;stroke-opacity:1"
       id="rect69767-1"
       width="21.461269"
       height="0.70093644"
       x="168.5062"
       y="-71.34967"
       transform="rotate(90)" />
    <rect
       style="fill:#ffffff;fill-opacity:1;stroke:#ffffff;stroke-width:0.89212;stroke-linejoin:miter;stroke-miterlimit:4;stroke-dasharray:none;stroke-opacity:1"
       id="rect69767-1-9"
       width="21.253286"
       height="0.83122319"
       x="146.26527"
       y="-83.955696"
       transform="rotate(90)" />
    <rect
       style="fill:#f3700f;fill-opacity:1;stroke:#f3700f;stroke-width:0.655601;stroke-linejoin:miter;stroke-miterlimit:4;stroke-dasharray:none;stroke-opacity:1"
       id="rect70311"
       width="59.35957"
       height="6.1867003"
       x="91.454872"
       y="183.9794" />
    <rect
       style="fill:#483737;fill-opacity:1;stroke:#483737;stroke-width:1.66954;stroke-linejoin:bevel;stroke-miterlimit:4;stroke-dasharray:none;stroke-opacity:1"
       id="rect70311-7"
       width="55.023201"
       height="1.5463239"
       x="93.716743"
       y="186.22327" />
    <rect
       style="opacity:0.55;fill:#999999;fill-opacity:1;stroke:#999999;stroke-width:0.0817777;stroke-linejoin:miter;stroke-miterlimit:4;stroke-dasharray:none;stroke-opacity:1"
       id="rect61117-7-6-7-3"
       width="10.697219"
       height="0.68430084"
       x="71.779884"
       y="169.93889"
       ry="0" />
    <rect
       style="opacity:0.55;fill:#999999;fill-opacity:1;stroke:#999999;stroke-width:0.0963419;stroke-linejoin:miter;stroke-miterlimit:4;stroke-dasharray:none;stroke-opacity:1"
       id="rect61117-7-6-6-5-6"
       width="17.587954"
       height="0.57765836"
       x="170.71664"
       y="-72.363373"
       ry="0"
       transform="rotate(90)" />
    <path
       id="path3612"
       style="fill:none;stroke:#000000;stroke-width:0.277335;stroke-linecap:round;stroke-linejoin:round"
       d="m 126.93106,119.98295 0.20937,1.28833 c -0.16215,0.31674 -0.25423,0.67861 -0.25423,1.06278 0,1.24556 0.96608,2.25567 2.15723,2.25567 1.19115,0 2.15912,-1.01011 2.15912,-2.25567 0,-0.37214 -0.0883,-0.72288 -0.24115,-1.03241 l 0.20937,-1.28619 -0.88236,0.47499 c -0.3517,-0.26015 -0.78173,-0.41426 -1.24501,-0.41426 -0.44976,0 -0.86738,0.14393 -1.2132,0.39041 l -0.89893,-0.48365 z" />
    <path
       id="path3478"
       style="fill:#ffffff;stroke:#000000;stroke-width:0.183883;stroke-linecap:round;stroke-linejoin:round"
       d="m 126.93106,119.98295 0.20937,1.28833 c -0.16215,0.31674 -0.25423,0.67861 -0.25423,1.06278 0,1.24556 0.96608,2.25567 2.15723,2.25567 1.19115,0 2.15912,-1.01011 2.15912,-2.25567 0,-0.37214 -0.0883,-0.72288 -0.24115,-1.03241 l 0.20937,-1.28619 -0.88236,0.47499 c -0.3517,-0.26015 -0.78173,-0.41426 -1.24501,-0.41426 -0.44976,0 -0.86738,0.14393 -1.2132,0.39041 l -0.89893,-0.48365 z" />
    <ellipse
       id="path3183"
       style="fill:#000000;stroke-width:0.0985737"
       transform="matrix(0.88648476,0.46275779,-0.3615465,0.93235408,0,0)"
       cx="164.72641"
       cy="49.024052"
       rx="0.37540588"
       ry="0.41413417" />
    <ellipse
       id="path3185"
       style="fill:#ffffff;stroke-width:0.0390451"
       transform="matrix(0.88648402,0.4627592,-0.36154762,0.93235364,0,0)"
       cx="164.8194"
       cy="48.956181"
       rx="0.14869867"
       ry="0.16403891" />
    <ellipse
       id="path3195"
       style="fill:#000000;stroke-width:0.0985737"
       transform="matrix(0.88648476,0.46275779,-0.3615465,0.93235408,0,0)"
       cx="166.13052"
       cy="48.323349"
       rx="0.37540588"
       ry="0.41413417" />
    <ellipse
       id="path3197"
       style="fill:#ffffff;stroke-width:0.0390451"
       transform="matrix(0.88648402,0.4627592,-0.36154762,0.93235364,0,0)"
       cx="166.22351"
       cy="48.255466"
       rx="0.14869867"
       ry="0.16403891" />
    <path
       id="path3588"
       sodipodi:nodetypes="csccsc"
       style="fill:none;stroke:#000000;stroke-width:0.128869;stroke-linecap:round;stroke-linejoin:round"
       d="m 128.03704,123.19729 c 0.0309,0.2714 0.1699,0.54942 0.47855,0.55525 0.41022,0.008 0.74598,-0.51073 0.8446,-0.87364 -0.22566,-0.0379 -0.45131,-0.0358 -0.67698,-0.0117 0.0986,0.34546 0.44697,0.87887 0.78945,0.88529 0.32857,0.006 0.44148,-0.24447 0.47855,-0.55524" />
    <path
       id="path3612-9"
       style="fill:none;stroke:#000000;stroke-width:0.277335;stroke-linecap:round;stroke-linejoin:round"
       d="m 81.285421,119.88313 0.209368,1.28833 c -0.162148,0.31674 -0.254233,0.67861 -0.254233,1.06278 0,1.24556 0.96608,2.25567 2.157233,2.25567 1.191153,0 2.15912,-1.01011 2.15912,-2.25567 0,-0.37214 -0.08835,-0.72288 -0.241149,-1.03241 l 0.209368,-1.28619 -0.882358,0.47499 c -0.351703,-0.26015 -0.781729,-0.41426 -1.245007,-0.41426 -0.449761,0 -0.867382,0.14393 -1.21321,0.39041 l -0.898922,-0.48365 z" />
    <path
       id="path3478-3"
       style="fill:#ffffff;stroke:#000000;stroke-width:0.183883;stroke-linecap:round;stroke-linejoin:round"
       d="m 81.285421,119.88313 0.209368,1.28833 c -0.162148,0.31674 -0.254233,0.67861 -0.254233,1.06278 0,1.24556 0.96608,2.25567 2.157233,2.25567 1.191153,0 2.15912,-1.01011 2.15912,-2.25567 0,-0.37214 -0.08835,-0.72288 -0.241149,-1.03241 l 0.209368,-1.28619 -0.882358,0.47499 c -0.351703,-0.26015 -0.781729,-0.41426 -1.245007,-0.41426 -0.449761,0 -0.867382,0.14393 -1.21321,0.39041 l -0.898922,-0.48365 z" />
    <ellipse
       id="path3183-9"
       style="fill:#000000;stroke-width:0.0985737"
       transform="matrix(0.88648476,0.46275779,-0.3615465,0.93235408,0,0)"
       cx="121.86781"
       cy="70.18911"
       rx="0.37540588"
       ry="0.41413417" />
    <ellipse
       id="path3185-0"
       style="fill:#ffffff;stroke-width:0.0390451"
       transform="matrix(0.88648402,0.4627592,-0.36154762,0.93235364,0,0)"
       cx="121.96083"
       cy="70.1213"
       rx="0.14869867"
       ry="0.16403891" />
    <ellipse
       id="path3195-8"
       style="fill:#000000;stroke-width:0.0985737"
       transform="matrix(0.88648476,0.46275779,-0.3615465,0.93235408,0,0)"
       cx="123.27192"
       cy="69.488411"
       rx="0.37540588"
       ry="0.41413417" />
    <ellipse
       id="path3197-8"
       style="fill:#ffffff;stroke-width:0.0390451"
       transform="matrix(0.88648402,0.4627592,-0.36154762,0.93235364,0,0)"
       cx="123.36494"
       cy="69.420586"
       rx="0.14869867"
       ry="0.16403891" />
    <path
       id="path3588-5"
       sodipodi:nodetypes="csccsc"
       style="fill:none;stroke:#000000;stroke-width:0.128869;stroke-linecap:round;stroke-linejoin:round"
       d="m 82.391393,123.09747 c 0.0309,0.2714 0.169907,0.54942 0.478556,0.55525 0.410222,0.008 0.745983,-0.51073 0.844595,-0.87364 -0.225657,-0.0379 -0.451306,-0.0358 -0.676981,-0.0117 0.09865,0.34546 0.446972,0.87887 0.789453,0.88529 0.32857,0.006 0.44148,-0.24447 0.478556,-0.55524" />
    <path
       id="path1575-3"
       style="fill:#000000;stroke-width:0.0121366"
       d="m 142.53954,125.48202 c -0.009,-0.004 -0.0191,-0.008 -0.0289,-0.0115 -0.40387,-0.0986 -0.77188,0.26209 -0.94329,0.65025 -0.17228,0.3446 -0.1962,0.87775 0.12595,1.12026 0.047,0.0344 0.10163,0.0535 0.15681,0.0609 0.4795,0.0318 0.86943,-0.45272 0.97473,-0.95367 0.0896,-0.31373 0.005,-0.73836 -0.28531,-0.86627 z m -1.60826,-0.71375 c -0.23724,-0.10099 -0.51578,0.087 -0.64287,0.32551 -0.2565,0.47029 -0.2759,1.19167 0.12996,1.56345 0.0395,0.0306 0.0839,0.0521 0.13041,0.0644 0.33333,0.0836 0.60619,-0.25535 0.7066,-0.58401 0.14029,-0.42988 0.11957,-1.01073 -0.22565,-1.30774 -0.0316,-0.0269 -0.0645,-0.0473 -0.0984,-0.0617 z m 2.11915,2.63971 c -0.41605,-0.15822 -0.85733,0.17681 -1.049,0.59054 -0.16325,0.28691 -0.1643,0.77033 0.13853,0.93792 0.43647,0.19278 0.91917,-0.20116 1.09169,-0.65132 0.13355,-0.28878 0.10656,-0.72594 -0.18122,-0.87714 z m -3.59255,-1.52576 c -0.17236,-0.0806 -0.38383,-0.0405 -0.51082,0.13404 -0.33936,0.46736 -0.27564,1.28524 0.18258,1.62595 0.19353,0.13569 0.4401,0.0373 0.56872,-0.15824 0.27395,-0.41866 0.24107,-1.0654 -0.0636,-1.45191 -0.0479,-0.0679 -0.1094,-0.11827 -0.17684,-0.14985 z m 1.48331,1.79579 c -0.33923,-0.1542 -0.75237,-0.11571 -1.07454,0.0759 -0.3568,0.23196 -0.69029,0.53926 -0.91735,0.93413 -0.20102,0.26695 -0.1171,0.71874 0.17192,0.85359 0.34475,0.17061 0.74037,0.0346 1.09407,0.17314 0.31208,0.0835 0.51401,0.37855 0.73827,0.61394 0.18648,0.21294 0.51236,0.31327 0.72453,0.0894 0.18943,-0.24029 0.16205,-0.60177 0.13985,-0.90236 -0.082,-0.50913 -0.17276,-1.04634 -0.45219,-1.46876 -0.111,-0.17209 -0.25889,-0.29359 -0.42456,-0.36903 z" />
    <path
       id="path1575-3-8-5-6-1-1-5-9"
       style="fill:#000000;stroke-width:0.0121366"
       d="m 59.001818,127.28636 c -0.0055,-0.009 -0.0112,-0.0196 -0.01725,-0.0288 -0.272196,-0.35442 -0.756151,-0.31622 -1.096869,-0.1219 -0.31862,0.15883 -0.617041,0.56997 -0.48577,0.98407 0.01984,0.0596 0.0535,0.1122 0.09382,0.15579 0.367792,0.35249 0.934195,0.22991 1.281001,-0.0999 0.236163,-0.19043 0.390425,-0.58884 0.224958,-0.8891 z m -0.915635,-1.66896 c -0.13732,-0.24275 -0.459123,-0.28194 -0.685928,-0.1774 -0.451976,0.20213 -0.845344,0.7673 -0.71466,1.34215 0.01543,0.0515 0.03997,0.099 0.07081,0.14055 0.223436,0.29438 0.61976,0.20864 0.872407,0.0136 0.337632,-0.249 0.625246,-0.72884 0.504009,-1.20238 -0.01168,-0.0429 -0.02695,-0.0819 -0.0466,-0.11654 z m 0.316513,3.56153 c -0.250709,-0.41057 -0.779991,-0.44286 -1.150358,-0.24185 -0.281164,0.11872 -0.53519,0.50559 -0.380168,0.84647 0.248979,0.4522 0.842321,0.4655 1.216416,0.22222 0.258335,-0.14045 0.465657,-0.50937 0.31411,-0.82684 z m -2.081272,-3.67315 c -0.09602,-0.18216 -0.286516,-0.29424 -0.47978,-0.24086 -0.516868,0.14333 -0.894153,0.8425 -0.7052,1.42816 0.0841,0.24076 0.333328,0.32998 0.538848,0.26094 0.438934,-0.14884 0.751298,-0.68982 0.709458,-1.20748 -0.0028,-0.0871 -0.02556,-0.16948 -0.06344,-0.24068 z m 0.248716,2.45132 c -0.191225,-0.35497 -0.542628,-0.60583 -0.901323,-0.67185 -0.40756,-0.0573 -0.835901,-0.0384 -1.224757,0.12341 -0.301059,0.0767 -0.470335,0.49642 -0.309242,0.80162 0.187064,0.37187 0.575491,0.53262 0.786491,0.88492 0.20648,0.27977 0.213817,0.65403 0.27034,0.99569 0.03797,0.2979 0.246723,0.60056 0.534085,0.56576 0.277746,-0.0634 0.445106,-0.37197 0.584736,-0.62814 0.200951,-0.46407 0.409517,-0.95672 0.406727,-1.48595 0.0011,-0.21367 -0.05383,-0.41192 -0.147087,-0.5854 z"
       inkscape:transform-center-x="-0.46635743"
       inkscape:transform-center-y="0.050594028" />
    <path
       id="path1575-3-8-5-6-1-1-5-9-8"
       style="fill:#000000;stroke-width:0.0121366"
       d="m 68.791343,126.7786 c -0.0046,-0.01 -0.0092,-0.0209 -0.01429,-0.0308 -0.235242,-0.38733 -0.719873,-0.41196 -1.077696,-0.26295 -0.332342,0.1166 -0.669675,0.48651 -0.580381,0.91492 0.01379,0.0618 0.04202,0.11839 0.07774,0.16692 0.330413,0.39777 0.905343,0.34923 1.282676,0.0663 0.253555,-0.15867 0.446395,-0.53456 0.311815,-0.85428 z m -0.743969,-1.77662 c -0.112328,-0.25894 -0.428163,-0.3395 -0.663891,-0.26495 -0.469139,0.14237 -0.916109,0.65304 -0.843361,1.24109 0.01022,0.0532 0.02988,0.10351 0.05639,0.14879 0.192756,0.32137 0.595044,0.28745 0.865435,0.12632 0.36019,-0.20373 0.693608,-0.64329 0.620185,-1.12945 -0.0073,-0.0442 -0.01865,-0.0849 -0.03474,-0.12181 z m -0.03927,3.57952 c -0.208318,-0.44035 -0.730979,-0.54088 -1.118924,-0.38906 -0.291145,0.0816 -0.581956,0.43313 -0.461792,0.79185 0.202459,0.48149 0.79066,0.57143 1.186506,0.3781 0.270622,-0.10614 0.513249,-0.44587 0.39421,-0.78089 z m -1.703039,-3.91863 c -0.07731,-0.1934 -0.255444,-0.3294 -0.452764,-0.30135 -0.527773,0.0756 -0.972071,0.72145 -0.842504,1.32776 0.05964,0.25009 0.298405,0.37097 0.509458,0.32895 0.450889,-0.0911 0.814973,-0.58822 0.824816,-1.10796 0.0059,-0.0869 -0.0086,-0.1717 -0.03913,-0.24734 z m 0.0036,2.46769 c -0.154736,-0.37742 -0.478959,-0.6721 -0.828787,-0.78408 -0.399242,-0.10965 -0.826705,-0.1462 -1.229123,-0.0358 -0.306733,0.0372 -0.516612,0.4324 -0.386869,0.75647 0.148923,0.39366 0.518883,0.6036 0.693532,0.98092 0.177365,0.30466 0.14748,0.67747 0.169704,1.02424 0.0081,0.30089 0.185485,0.62859 0.474452,0.63117 0.282257,-0.0271 0.479183,-0.31201 0.643357,-0.54847 0.245748,-0.4351 0.501902,-0.8976 0.551694,-1.42378 0.02237,-0.21215 -0.01257,-0.41623 -0.08799,-0.60066 z"
       inkscape:transform-center-x="-0.48734995"
       inkscape:transform-center-y="-0.027383209" />
    <path
       id="path1575-3-8-5-6-1-1-5-9-8-8"
       style="fill:#000000;stroke-width:0.0121366"
       d="m 154.13802,126.34091 c -0.005,-0.01 -0.009,-0.0209 -0.0143,-0.0308 -0.23524,-0.38733 -0.71987,-0.41196 -1.07769,-0.26295 -0.33234,0.1166 -0.66968,0.48651 -0.58039,0.91492 0.0138,0.0617 0.042,0.11839 0.0777,0.16692 0.33041,0.39777 0.90534,0.34923 1.28267,0.0663 0.25356,-0.15867 0.44639,-0.53456 0.31182,-0.85428 z m -0.74396,-1.77662 c -0.11233,-0.25894 -0.42817,-0.3395 -0.6639,-0.26495 -0.46914,0.14237 -0.91611,0.65304 -0.84335,1.24108 0.0103,0.0532 0.0299,0.10352 0.0564,0.1488 0.19276,0.32137 0.59504,0.28745 0.86543,0.12632 0.36019,-0.20373 0.69361,-0.64329 0.62019,-1.12945 -0.007,-0.0441 -0.0187,-0.0849 -0.0347,-0.12181 z m -0.0393,3.57952 c -0.20832,-0.44034 -0.73099,-0.54088 -1.11893,-0.38906 -0.29114,0.0816 -0.58195,0.43313 -0.46179,0.79185 0.20246,0.48149 0.79066,0.57143 1.1865,0.3781 0.27063,-0.10614 0.51326,-0.44587 0.39422,-0.78089 z m -1.70304,-3.91863 c -0.0773,-0.1934 -0.25545,-0.3294 -0.45276,-0.30135 -0.52778,0.0756 -0.97208,0.72145 -0.84251,1.32776 0.0597,0.25009 0.2984,0.37097 0.50946,0.32895 0.45089,-0.0911 0.81497,-0.58822 0.82481,-1.10796 0.006,-0.0869 -0.009,-0.1717 -0.0391,-0.24734 z m 0.003,2.46769 c -0.15473,-0.37742 -0.47896,-0.6721 -0.82878,-0.78408 -0.39925,-0.10965 -0.82671,-0.1462 -1.22913,-0.0358 -0.30673,0.0372 -0.51661,0.4324 -0.38687,0.75647 0.14893,0.39366 0.51888,0.6036 0.69353,0.98092 0.17737,0.30466 0.14748,0.67747 0.16971,1.02424 0.008,0.30089 0.18549,0.62859 0.47445,0.63117 0.28226,-0.0271 0.47918,-0.31201 0.64336,-0.54847 0.24575,-0.4351 0.5019,-0.8976 0.55169,-1.42378 0.0224,-0.21215 -0.0126,-0.41623 -0.088,-0.60066 z"
       inkscape:transform-center-x="-0.48734995"
       inkscape:transform-center-y="-0.027383209" />
    <path
       id="path1575-3-8-5-6-1-1-5-9-8-4"
       style="fill:#000000;stroke-width:0.0121366"
       d="m 76.849605,126.57202 c -0.0082,-0.006 -0.01694,-0.0131 -0.02564,-0.019 -0.370834,-0.20743 -0.804553,0.0405 -1.053384,0.3696 -0.240418,0.28661 -0.377022,0.79719 -0.116091,1.12165 0.03842,0.0463 0.08725,0.08 0.13917,0.10253 0.458402,0.16364 0.939723,-0.19842 1.148421,-0.65525 0.153654,-0.27953 0.161524,-0.715 -0.09253,-0.91937 z m -1.40838,-1.13775 c -0.208672,-0.16367 -0.518872,-0.0584 -0.692885,0.13777 -0.348871,0.38517 -0.5211,1.07963 -0.206444,1.55269 0.03163,0.0407 0.0703,0.0738 0.112787,0.0986 0.305568,0.17346 0.642373,-0.0798 0.809682,-0.37089 0.227526,-0.37818 0.330966,-0.9474 0.05923,-1.33112 -0.02526,-0.0345 -0.05252,-0.0637 -0.08235,-0.0871 z m 1.494365,3.14761 c -0.369963,-0.26869 -0.869306,-0.0659 -1.143241,0.2824 -0.219391,0.23314 -0.323218,0.7018 -0.06509,0.94825 0.382418,0.30788 0.934468,0.0594 1.197576,-0.32955 0.19099,-0.24316 0.257776,-0.67473 0.01075,-0.9011 z m -3.160633,-2.47498 c -0.150101,-0.12591 -0.363737,-0.14562 -0.524068,-0.0114 -0.428603,0.35943 -0.540751,1.17049 -0.16868,1.6279 0.158879,0.18523 0.419003,0.15803 0.585356,0.004 0.35482,-0.33028 0.460468,-0.96679 0.247106,-1.42612 -0.03198,-0.0792 -0.0808,-0.14517 -0.139795,-0.19424 z m 1.057013,2.15286 c -0.296298,-0.24354 -0.705268,-0.32059 -1.058573,-0.22387 -0.395463,0.12624 -0.784351,0.33199 -1.088595,0.65219 -0.25195,0.20306 -0.266467,0.66483 -0.01477,0.87568 0.298163,0.26096 0.710881,0.23858 1.02453,0.47097 0.284989,0.16742 0.418101,0.50959 0.585596,0.80004 0.135606,0.25823 0.430417,0.44578 0.683858,0.28737 0.2349,-0.18062 0.285196,-0.5389 0.327578,-0.83667 0.02878,-0.51658 0.05496,-1.06289 -0.126271,-1.55005 -0.07107,-0.1977 -0.188729,-0.35648 -0.333354,-0.47559 z"
       inkscape:transform-center-x="-0.38811333"
       inkscape:transform-center-y="-0.12044035" />
    <rect
       style="fill:#ffffff;fill-opacity:1;stroke:none;stroke-width:0.461937;stroke-linejoin:bevel;stroke-miterlimit:4;stroke-dasharray:none;stroke-opacity:0.3"
       id="rect108926-0-3"
       width="34.527702"
       height="4.3619833"
       x="29.817265"
       y="225.91313"
       transform="matrix(0.99998777,0.00494555,0.36471101,0.93112076,0,0)" />
    <rect
       style="fill:#ffffff;fill-opacity:1;stroke:none;stroke-width:0.461937;stroke-linejoin:bevel;stroke-miterlimit:4;stroke-dasharray:none;stroke-opacity:0.3"
       id="rect108926-0-3-44"
       width="34.527702"
       height="4.3619833"
       x="-23.373249"
       y="225.65271"
       transform="matrix(0.99998777,0.00494555,0.36471101,0.93112076,0,0)" />
    <rect
       style="fill:#ffffff;fill-opacity:1;stroke:none;stroke-width:0.461937;stroke-linejoin:bevel;stroke-miterlimit:4;stroke-dasharray:none;stroke-opacity:0.3"
       id="rect108926-0-3-44-4"
       width="34.527702"
       height="4.3619833"
       x="-79.258408"
       y="225.98425"
       transform="matrix(0.99998777,0.00494555,0.36471101,0.93112076,0,0)" />
    <rect
       style="fill:#ffffff;fill-opacity:1;stroke:none;stroke-width:0.461937;stroke-linejoin:bevel;stroke-miterlimit:4;stroke-dasharray:none;stroke-opacity:0.3"
       id="rect108926-0-3-4"
       width="34.527702"
       height="4.3619833"
       x="83.795258"
       y="225.58344"
       transform="matrix(0.99998777,0.00494555,0.36471101,0.93112076,0,0)" />
    <rect
       style="opacity:1;fill:none;fill-opacity:1;stroke:#f3700f;stroke-width:5;stroke-linejoin:miter;stroke-miterlimit:4;stroke-dasharray:none;stroke-opacity:1"
       id="rect111866"
       width="209.22667"
       height="208.17398"
       x="0.17088315"
       y="23.876266" />
  </g>
</svg>
